<mxfile host="app.diagrams.net" modified="2023-09-13T16:06:31.384Z" agent="Mozilla/5.0 (Windows NT 10.0; Win64; x64) AppleWebKit/537.36 (KHTML, like Gecko) Chrome/116.0.0.0 Safari/537.36" version="21.7.4" etag="D5KkdW2Ag2rVqXjEeMJ8" type="github">
  <diagram name="Trang-1" id="1po6_D7rEAvZ2TMGmh48">
    <mxGraphModel>
      <root>
        <mxCell id="0" />
        <mxCell id="1" parent="0" />
      </root>
    </mxGraphModel>
  </diagram>
</mxfile>
